<svg xmlns="http://www.w3.org/2000/svg" viewBox="0 0 24 24" width="24" height="24">
  <circle cx="12" cy="12" r="10" fill="#F4A542" opacity="0.2"/>
  <path d="M12 2c-4 0-8 .5-8 4v9.5C4 17.43 5.57 19 7.5 19L6 20.5v.5h12v-.5L16.5 19c1.93 0 3.5-1.57 3.5-3.5V6c0-3.5-3.58-4-8-4zm0 2c3.51 0 5.5.58 5.92 1.5H6.08C6.5 4.58 8.49 4 12 4zM6 7.5h5v3H6v-3zm7 0h5v3h-5v-3zm-5.5 8c-.83 0-1.5-.67-1.5-1.5S6.67 12.5 7.5 12.5s1.5.67 1.5 1.5-.67 1.5-1.5 1.5zm9 0c-.83 0-1.5-.67-1.5-1.5s.67-1.5 1.5-1.5 1.5.67 1.5 1.5-.67 1.5-1.5 1.5z" fill="#CC5500"/>
</svg>
