<svg xmlns="http://www.w3.org/2000/svg" viewBox="0 0 24 24" width="24" height="24">
  <circle cx="12" cy="12" r="10" fill="#F4A542" opacity="0.2"/>
  <path d="M20 8h-3l-2-4H9L7 8H4c-1.11 0-2 .89-2 2v6h2c0 1.66 1.34 3 3 3s3-1.34 3-3h4c0 1.66 1.34 3 3 3s3-1.34 3-3h2v-6c0-1.11-.89-2-2-2zM7 17c-.55 0-1-.45-1-1s.45-1 1-1 1 .45 1 1-.45 1-1 1zm3-9H9.5l1-2h3l1 2H10zm7 9c-.55 0-1-.45-1-1s.45-1 1-1 1 .45 1 1-.45 1-1 1z" fill="#CC5500"/>
  <rect x="1" y="5" width="8" height="2" rx="1" fill="#F4A542"/>
</svg>
