<svg xmlns="http://www.w3.org/2000/svg" viewBox="0 0 24 24" width="24" height="24">
  <circle cx="12" cy="12" r="10" fill="#F4A542" opacity="0.2"/>
  <path d="M12 2c-5.33 4.55-8 8.48-8 11.8 0 4.98 3.8 8.2 8 8.2s8-3.22 8-8.2C20 10.48 17.33 6.55 12 2zm0 18c-3.35 0-6-2.57-6-6.2 0-2.34 1.95-5.44 6-9.14 4.05 3.7 6 6.79 6 9.14 0 3.63-2.65 6.2-6 6.2zm-3.5-6c.61 0 1.1.57 1.5 1.25.4-.68.9-1.25 1.5-1.25s1.1.57 1.5 1.25c.4-.68.9-1.25 1.5-1.25v1.5c-.38 0-.75.56-1.5 1.75-.75-1.19-1.12-1.75-1.5-1.75s-.75.56-1.5 1.75C9.75 16.06 9.38 15.5 9 15.5v-1.5z" fill="#CC5500"/>
</svg>
